<svg width="204" height="204" viewBox="0 0 204 204" fill="none" xmlns="http://www.w3.org/2000/svg">
<rect width="204" height="204" rx="40" fill="#267B5E"/>
<g filter="url(#filter0_i_23_85)">
<path d="M37 88.1386V81.2668C36.9995 80.964 37.076 80.6656 37.2228 80.3976C37.3696 80.1296 37.5823 79.9 37.8424 79.7286C38.1025 79.5573 38.4023 79.4494 38.7156 79.4144C39.029 79.3793 39.3465 79.4181 39.6408 79.5274L86.208 96.8279C86.5732 96.9636 86.8871 97.2022 87.1084 97.5123C87.3297 97.8224 87.448 98.1896 87.4478 98.5654V105.672C87.4479 106.051 87.3272 106.422 87.1018 106.734C86.8764 107.046 86.5571 107.284 86.1866 107.417L39.6194 124.159C39.3265 124.264 39.0114 124.299 38.7011 124.262C38.3908 124.225 38.0944 124.117 37.8371 123.946C37.5799 123.776 37.3694 123.548 37.2237 123.282C37.0779 123.017 37.0012 122.721 37 122.421V115.514C37.0003 115.135 37.1212 114.765 37.3466 114.453C37.572 114.142 37.8911 113.904 38.2612 113.771L60.9627 105.607C61.3332 105.474 61.6525 105.236 61.8779 104.924C62.1033 104.612 62.224 104.241 62.2239 103.862V99.7945C62.224 99.415 62.1033 99.0445 61.8779 98.7326C61.6525 98.4207 61.3332 98.1824 60.9627 98.0496L38.2612 89.8835C37.8911 89.7508 37.572 89.5127 37.3466 89.2013C37.1212 88.8898 37.0003 88.5178 37 88.1386Z" fill="white"/>
</g>
<g filter="url(#filter1_i_23_85)">
<path d="M57.293 148.931L51.0926 145.495C50.8191 145.344 50.5882 145.131 50.4197 144.875C50.2513 144.619 50.1504 144.328 50.1259 144.026C50.1013 143.724 50.1539 143.421 50.2789 143.143C50.404 142.865 50.5977 142.62 50.8435 142.43L89.7375 112.374C90.0426 112.138 90.4148 111.997 90.8053 111.968C91.1957 111.939 91.5862 112.024 91.9252 112.212L98.3375 115.766C98.68 115.955 98.9539 116.241 99.1226 116.584C99.2913 116.927 99.3467 117.312 99.2813 117.686L91.1041 164.764C91.0524 165.06 90.9269 165.339 90.7384 165.579C90.5499 165.818 90.3038 166.011 90.0212 166.139C89.7386 166.268 89.4279 166.329 89.1154 166.317C88.8029 166.305 88.498 166.221 88.2266 166.072L81.9942 162.619C81.6521 162.429 81.3787 162.143 81.2103 161.8C81.0419 161.457 80.9867 161.073 81.052 160.699L85.0361 137.747C85.1014 137.373 85.0461 136.988 84.8774 136.645C84.7087 136.302 84.4347 136.016 84.0922 135.827L80.4223 133.793C80.0799 133.603 79.6852 133.518 79.2911 133.55C78.897 133.581 78.5223 133.727 78.2172 133.969L59.4981 148.755C59.1933 148.996 58.819 149.143 58.4252 149.174C58.0315 149.206 57.6354 149.12 57.293 148.931Z" fill="white"/>
</g>
<g filter="url(#filter2_i_23_85)">
<path d="M122.293 162.46L116.093 165.896C115.82 166.048 115.512 166.133 115.197 166.145C114.882 166.157 114.568 166.095 114.284 165.965C113.999 165.834 113.752 165.639 113.564 165.396C113.375 165.153 113.252 164.87 113.203 164.571L105.53 117.214C105.47 116.842 105.528 116.462 105.697 116.123C105.866 115.784 106.139 115.502 106.478 115.315L112.89 111.761C113.232 111.571 113.627 111.487 114.021 111.518C114.415 111.549 114.79 111.696 115.095 111.937L153.485 142.273C153.726 142.464 153.916 142.708 154.038 142.984C154.159 143.261 154.21 143.561 154.184 143.861C154.159 144.16 154.059 144.448 153.892 144.702C153.725 144.956 153.497 145.168 153.227 145.319L146.995 148.772C146.652 148.962 146.258 149.046 145.864 149.015C145.47 148.983 145.096 148.837 144.791 148.596L126.074 133.808C125.769 133.567 125.394 133.421 125 133.389C124.606 133.358 124.211 133.443 123.869 133.632L120.199 135.666C119.856 135.856 119.582 136.141 119.414 136.485C119.245 136.828 119.19 137.213 119.255 137.587L123.237 160.539C123.303 160.913 123.247 161.298 123.079 161.641C122.911 161.984 122.635 162.27 122.293 162.46Z" fill="white"/>
</g>
<g filter="url(#filter3_i_23_85)">
<path d="M57.293 55.0689L51.0926 58.5048C50.8191 58.6559 50.5882 58.8686 50.4197 59.1246C50.2513 59.3807 50.1504 59.6722 50.1259 59.9741C50.1013 60.276 50.1539 60.5791 50.2789 60.8571C50.404 61.1351 50.5977 61.3796 50.8435 61.5695L89.7375 91.6259C90.0426 91.8616 90.4148 92.0032 90.8053 92.0321C91.1957 92.061 91.5862 91.9758 91.9252 91.7877L98.3375 88.2345C98.68 88.0448 98.9539 87.7591 99.1226 87.4159C99.2913 87.0726 99.3467 86.688 99.2813 86.3137L91.1041 39.2361C91.0524 38.9401 90.9269 38.6605 90.7384 38.4211C90.5499 38.1816 90.3038 37.9895 90.0212 37.861C89.7386 37.7325 89.4279 37.6714 89.1154 37.683C88.8029 37.6946 88.498 37.7786 88.2266 37.9277L81.9942 41.3812C81.6521 41.5711 81.3787 41.8567 81.2103 42.1997C81.0419 42.5428 80.9867 42.9271 81.052 43.3011L85.0361 66.2527C85.1014 66.627 85.0461 67.0116 84.8774 67.3548C84.7087 67.6981 84.4347 67.9837 84.0922 68.1734L80.4223 70.207C80.0799 70.3969 79.6852 70.4818 79.2911 70.4504C78.897 70.419 78.5223 70.2727 78.2172 70.0312L59.4981 55.2448C59.1933 55.0035 58.819 54.8573 58.4252 54.8257C58.0315 54.7941 57.6354 54.8796 57.293 55.0689Z" fill="white" fill-opacity="0.2"/>
</g>
<g filter="url(#filter4_i_23_85)">
<path d="M167 87.7956V80.9238C167 80.621 166.924 80.3226 166.777 80.0546C166.63 79.7866 166.418 79.557 166.158 79.3856C165.897 79.2143 165.598 79.1064 165.284 79.0713C164.971 79.0363 164.653 79.0751 164.359 79.1844L117.792 96.4849C117.427 96.6206 117.113 96.8592 116.892 97.1693C116.67 97.4794 116.552 97.8465 116.552 98.2224V105.329C116.552 105.708 116.673 106.079 116.898 106.391C117.124 106.703 117.443 106.941 117.813 107.074L164.381 123.816C164.674 123.921 164.989 123.956 165.299 123.919C165.609 123.882 165.906 123.774 166.163 123.603C166.42 123.433 166.631 123.205 166.776 122.939C166.922 122.674 166.999 122.378 167 122.078V115.171C167 114.792 166.879 114.422 166.653 114.11C166.428 113.799 166.109 113.561 165.739 113.428L143.037 105.264C142.667 105.131 142.348 104.893 142.122 104.581C141.897 104.269 141.776 103.898 141.776 103.519V99.4515C141.776 99.072 141.897 98.7015 142.122 98.3896C142.348 98.0777 142.667 97.8394 143.037 97.7066L165.739 89.5405C166.109 89.4078 166.428 89.1697 166.653 88.8583C166.879 88.5468 167 88.1748 167 87.7956Z" fill="white" fill-opacity="0.2"/>
</g>
<g filter="url(#filter5_i_23_85)">
<path d="M122.293 41.5398L116.093 38.104C115.82 37.9522 115.512 37.8666 115.197 37.8546C114.882 37.8426 114.568 37.9045 114.284 38.0351C113.999 38.1656 113.752 38.3608 113.564 38.6038C113.375 38.8467 113.252 39.1301 113.203 39.4293L105.53 86.7861C105.47 87.1575 105.528 87.5377 105.697 87.8767C105.866 88.2157 106.139 88.4977 106.478 88.6854L112.89 92.2387C113.232 92.4285 113.627 92.5134 114.021 92.482C114.415 92.4506 114.79 92.3043 115.095 92.0628L153.485 61.7271C153.726 61.5362 153.916 61.2921 154.038 61.0157C154.159 60.7392 154.21 60.4386 154.184 60.1395C154.159 59.8403 154.059 59.5515 153.892 59.2976C153.725 59.0437 153.497 58.8322 153.227 58.6811L146.995 55.2276C146.652 55.0382 146.258 54.9536 145.864 54.9852C145.47 55.0168 145.096 55.163 144.791 55.4043L126.074 70.1917C125.769 70.4332 125.394 70.5794 125 70.6109C124.606 70.6423 124.211 70.5574 123.869 70.3675L120.199 68.3339C119.856 68.1442 119.582 67.8586 119.414 67.5153C119.245 67.172 119.19 66.7875 119.255 66.4131L123.237 43.4606C123.303 43.0866 123.247 42.7024 123.079 42.3593C122.911 42.0162 122.635 41.7297 122.293 41.5398Z" fill="white" fill-opacity="0.2"/>
</g>
<defs>
<filter id="filter0_i_23_85" x="37" y="78.4018" width="50.4479" height="45.8746" filterUnits="userSpaceOnUse" color-interpolation-filters="sRGB">
<feFlood flood-opacity="0" result="BackgroundImageFix"/>
<feBlend mode="normal" in="SourceGraphic" in2="BackgroundImageFix" result="shape"/>
<feColorMatrix in="SourceAlpha" type="matrix" values="0 0 0 0 0 0 0 0 0 0 0 0 0 0 0 0 0 0 127 0" result="hardAlpha"/>
<feOffset dy="-1"/>
<feGaussianBlur stdDeviation="1"/>
<feComposite in2="hardAlpha" operator="arithmetic" k2="-1" k3="1"/>
<feColorMatrix type="matrix" values="0 0 0 0 0 0 0 0 0 0 0 0 0 0 0 0 0 0 0.2 0"/>
<feBlend mode="normal" in2="shape" result="effect1_innerShadow_23_85"/>
</filter>
<filter id="filter1_i_23_85" x="50.12" y="110.962" width="49.188" height="55.3559" filterUnits="userSpaceOnUse" color-interpolation-filters="sRGB">
<feFlood flood-opacity="0" result="BackgroundImageFix"/>
<feBlend mode="normal" in="SourceGraphic" in2="BackgroundImageFix" result="shape"/>
<feColorMatrix in="SourceAlpha" type="matrix" values="0 0 0 0 0 0 0 0 0 0 0 0 0 0 0 0 0 0 127 0" result="hardAlpha"/>
<feOffset dy="-1"/>
<feGaussianBlur stdDeviation="1"/>
<feComposite in2="hardAlpha" operator="arithmetic" k2="-1" k3="1"/>
<feColorMatrix type="matrix" values="0 0 0 0 0 0 0 0 0 0 0 0 0 0 0 0 0 0 0.2 0"/>
<feBlend mode="normal" in2="shape" result="effect1_innerShadow_23_85"/>
</filter>
<filter id="filter2_i_23_85" x="105.507" y="110.512" width="48.684" height="55.6353" filterUnits="userSpaceOnUse" color-interpolation-filters="sRGB">
<feFlood flood-opacity="0" result="BackgroundImageFix"/>
<feBlend mode="normal" in="SourceGraphic" in2="BackgroundImageFix" result="shape"/>
<feColorMatrix in="SourceAlpha" type="matrix" values="0 0 0 0 0 0 0 0 0 0 0 0 0 0 0 0 0 0 127 0" result="hardAlpha"/>
<feOffset dy="-1"/>
<feGaussianBlur stdDeviation="1"/>
<feComposite in2="hardAlpha" operator="arithmetic" k2="-1" k3="1"/>
<feColorMatrix type="matrix" values="0 0 0 0 0 0 0 0 0 0 0 0 0 0 0 0 0 0 0.2 0"/>
<feBlend mode="normal" in2="shape" result="effect1_innerShadow_23_85"/>
</filter>
<filter id="filter3_i_23_85" x="50.12" y="36.6816" width="49.188" height="55.3559" filterUnits="userSpaceOnUse" color-interpolation-filters="sRGB">
<feFlood flood-opacity="0" result="BackgroundImageFix"/>
<feBlend mode="normal" in="SourceGraphic" in2="BackgroundImageFix" result="shape"/>
<feColorMatrix in="SourceAlpha" type="matrix" values="0 0 0 0 0 0 0 0 0 0 0 0 0 0 0 0 0 0 127 0" result="hardAlpha"/>
<feOffset dy="-1"/>
<feGaussianBlur stdDeviation="1"/>
<feComposite in2="hardAlpha" operator="arithmetic" k2="-1" k3="1"/>
<feColorMatrix type="matrix" values="0 0 0 0 0 0 0 0 0 0 0 0 0 0 0 0 0 0 0.2 0"/>
<feBlend mode="normal" in2="shape" result="effect1_innerShadow_23_85"/>
</filter>
<filter id="filter4_i_23_85" x="116.552" y="78.0588" width="50.4479" height="45.8746" filterUnits="userSpaceOnUse" color-interpolation-filters="sRGB">
<feFlood flood-opacity="0" result="BackgroundImageFix"/>
<feBlend mode="normal" in="SourceGraphic" in2="BackgroundImageFix" result="shape"/>
<feColorMatrix in="SourceAlpha" type="matrix" values="0 0 0 0 0 0 0 0 0 0 0 0 0 0 0 0 0 0 127 0" result="hardAlpha"/>
<feOffset dy="-1"/>
<feGaussianBlur stdDeviation="1"/>
<feComposite in2="hardAlpha" operator="arithmetic" k2="-1" k3="1"/>
<feColorMatrix type="matrix" values="0 0 0 0 0 0 0 0 0 0 0 0 0 0 0 0 0 0 0.2 0"/>
<feBlend mode="normal" in2="shape" result="effect1_innerShadow_23_85"/>
</filter>
<filter id="filter5_i_23_85" x="105.507" y="36.8531" width="48.684" height="55.6353" filterUnits="userSpaceOnUse" color-interpolation-filters="sRGB">
<feFlood flood-opacity="0" result="BackgroundImageFix"/>
<feBlend mode="normal" in="SourceGraphic" in2="BackgroundImageFix" result="shape"/>
<feColorMatrix in="SourceAlpha" type="matrix" values="0 0 0 0 0 0 0 0 0 0 0 0 0 0 0 0 0 0 127 0" result="hardAlpha"/>
<feOffset dy="-1"/>
<feGaussianBlur stdDeviation="1"/>
<feComposite in2="hardAlpha" operator="arithmetic" k2="-1" k3="1"/>
<feColorMatrix type="matrix" values="0 0 0 0 0 0 0 0 0 0 0 0 0 0 0 0 0 0 0.2 0"/>
<feBlend mode="normal" in2="shape" result="effect1_innerShadow_23_85"/>
</filter>
</defs>
</svg>
