<svg width="130" height="130" viewBox="0 0 130 130" fill="none" xmlns="http://www.w3.org/2000/svg">
<g filter="url(#filter0_i_23_78)">
<path d="M1.99702e-06 51.1386V44.2668C-0.000450594 43.964 0.0760325 43.6656 0.222824 43.3976C0.369616 43.1296 0.582287 42.9 0.842412 42.7286C1.10254 42.5573 1.40227 42.4494 1.71563 42.4144C2.02899 42.3793 2.34654 42.4181 2.64075 42.5274L49.208 59.8279C49.5732 59.9636 49.8871 60.2022 50.1084 60.5123C50.3297 60.8224 50.448 61.1896 50.4478 61.5654V68.6719C50.4479 69.0514 50.3272 69.4219 50.1018 69.7338C49.8764 70.0457 49.5571 70.284 49.1866 70.4168L2.61941 87.1586C2.32648 87.2637 2.01144 87.2992 1.70112 87.2622C1.3908 87.2252 1.09439 87.1168 0.837142 86.9462C0.579894 86.7755 0.369426 86.5477 0.223667 86.2822C0.0779072 86.0167 0.00117373 85.7213 1.99702e-06 85.4211V78.514C0.000298263 78.1347 0.12122 77.7646 0.346597 77.4531C0.571975 77.1416 0.891064 76.9036 1.2612 76.7709L23.9627 68.6067C24.3332 68.4738 24.6525 68.2355 24.8779 67.9237C25.1033 67.6118 25.224 67.2413 25.2239 66.8617V62.7945C25.224 62.415 25.1033 62.0445 24.8779 61.7326C24.6525 61.4207 24.3332 61.1824 23.9627 61.0496L1.2612 52.8835C0.891064 52.7508 0.571975 52.5127 0.346597 52.2013C0.12122 51.8898 0.000298263 51.5178 1.99702e-06 51.1386Z" fill="white"/>
</g>
<g filter="url(#filter1_i_23_78)">
<path d="M20.293 111.931L14.0926 108.495C13.8191 108.344 13.5882 108.131 13.4197 107.875C13.2513 107.619 13.1504 107.328 13.1259 107.026C13.1013 106.724 13.1539 106.421 13.2789 106.143C13.404 105.865 13.5977 105.62 13.8435 105.43L52.7375 75.3741C53.0426 75.1384 53.4148 74.9968 53.8053 74.9679C54.1957 74.939 54.5862 75.0242 54.9252 75.2123L61.3375 78.7655C61.68 78.9552 61.9539 79.2408 62.1226 79.5841C62.2913 79.9274 62.3467 80.312 62.2813 80.6863L54.1041 127.764C54.0524 128.06 53.9269 128.339 53.7384 128.579C53.5499 128.818 53.3038 129.011 53.0212 129.139C52.7386 129.268 52.4279 129.329 52.1154 129.317C51.8029 129.305 51.498 129.221 51.2266 129.072L44.9942 125.619C44.6521 125.429 44.3787 125.143 44.2103 124.8C44.0419 124.457 43.9867 124.073 44.052 123.699L48.0361 100.747C48.1014 100.373 48.0461 99.9884 47.8774 99.6451C47.7087 99.3019 47.4347 99.0162 47.0922 98.8265L43.4223 96.7929C43.0799 96.6031 42.6852 96.5182 42.2911 96.5496C41.897 96.581 41.5223 96.7273 41.2172 96.9688L22.4981 111.755C22.1933 111.996 21.819 112.143 21.4252 112.174C21.0315 112.206 20.6354 112.12 20.293 111.931Z" fill="white"/>
</g>
<g filter="url(#filter2_i_23_78)">
<path d="M85.2934 125.46L79.0929 128.896C78.8199 129.048 78.5125 129.133 78.1973 129.145C77.882 129.157 77.5685 129.095 77.2838 128.965C76.9992 128.834 76.752 128.639 76.5636 128.396C76.3753 128.153 76.2516 127.87 76.2031 127.571L68.5299 80.2139C68.4698 79.8425 68.5281 79.4623 68.6973 79.1233C68.8664 78.7843 69.1385 78.5023 69.4778 78.3146L75.89 74.7613C76.2324 74.5715 76.6271 74.4866 77.0212 74.518C77.4153 74.5494 77.79 74.6957 78.0951 74.9372L116.485 105.273C116.726 105.464 116.916 105.708 117.038 105.984C117.159 106.261 117.21 106.561 117.184 106.861C117.159 107.16 117.059 107.448 116.892 107.702C116.725 107.956 116.497 108.168 116.227 108.319L109.995 111.772C109.652 111.962 109.258 112.046 108.864 112.015C108.47 111.983 108.096 111.837 107.791 111.596L89.0737 96.8083C88.7686 96.5668 88.394 96.4206 87.9999 96.3891C87.6058 96.3577 87.2111 96.4426 86.8686 96.6325L83.1988 98.6661C82.8562 98.8558 82.5823 99.1414 82.4136 99.4847C82.2449 99.828 82.1895 100.213 82.2549 100.587L86.2373 123.539C86.3026 123.913 86.2474 124.298 86.079 124.641C85.9106 124.984 85.6354 125.27 85.2934 125.46Z" fill="white"/>
</g>
<g filter="url(#filter3_i_23_78)">
<path d="M20.293 18.0689L14.0926 21.5048C13.8191 21.6559 13.5882 21.8686 13.4197 22.1246C13.2513 22.3807 13.1504 22.6722 13.1259 22.9741C13.1013 23.276 13.1539 23.5791 13.2789 23.8571C13.404 24.1351 13.5977 24.3796 13.8435 24.5695L52.7375 54.6259C53.0426 54.8616 53.4148 55.0032 53.8053 55.0321C54.1957 55.061 54.5862 54.9758 54.9252 54.7877L61.3375 51.2345C61.68 51.0448 61.9539 50.7591 62.1226 50.4159C62.2913 50.0726 62.3467 49.688 62.2813 49.3137L54.1041 2.23615C54.0524 1.94014 53.9269 1.66051 53.7384 1.42107C53.5499 1.18163 53.3038 0.989474 53.0212 0.860968C52.7386 0.732462 52.4279 0.671415 52.1154 0.683025C51.8029 0.694636 51.498 0.77856 51.2266 0.92765L44.9942 4.38124C44.6521 4.5711 44.3787 4.85666 44.2103 5.19974C44.0419 5.54282 43.9867 5.92706 44.052 6.30108L48.0361 29.2527C48.1014 29.627 48.0461 30.0116 47.8774 30.3548C47.7087 30.6981 47.4347 30.9837 47.0922 31.1734L43.4223 33.207C43.0799 33.3969 42.6852 33.4818 42.2911 33.4504C41.897 33.419 41.5223 33.2727 41.2172 33.0312L22.4981 18.2448C22.1933 18.0035 21.819 17.8573 21.4252 17.8257C21.0315 17.7941 20.6354 17.8796 20.293 18.0689Z" fill="white" fill-opacity="0.2"/>
</g>
<g filter="url(#filter4_i_23_78)">
<path d="M130 50.7956V43.9238C130 43.621 129.924 43.3226 129.777 43.0546C129.63 42.7866 129.418 42.557 129.158 42.3856C128.897 42.2143 128.598 42.1064 128.284 42.0713C127.971 42.0363 127.653 42.0751 127.359 42.1844L80.792 59.4849C80.4268 59.6206 80.1129 59.8592 79.8916 60.1693C79.6703 60.4794 79.552 60.8465 79.5522 61.2224V68.3289C79.5521 68.7084 79.6728 69.0789 79.8982 69.3908C80.1236 69.7027 80.4429 69.941 80.8134 70.0738L127.381 86.8156C127.674 86.9207 127.989 86.9562 128.299 86.9192C128.609 86.8822 128.906 86.7738 129.163 86.6032C129.42 86.4325 129.631 86.2047 129.776 85.9392C129.922 85.6737 129.999 85.3783 130 85.0781V78.171C130 77.7917 129.879 77.4216 129.653 77.1101C129.428 76.7986 129.109 76.5606 128.739 76.4279L106.037 68.2637C105.667 68.1308 105.348 67.8925 105.122 67.5807C104.897 67.2688 104.776 66.8983 104.776 66.5187V62.4515C104.776 62.072 104.897 61.7015 105.122 61.3896C105.348 61.0777 105.667 60.8394 106.037 60.7066L128.739 52.5405C129.109 52.4078 129.428 52.1697 129.653 51.8583C129.879 51.5468 130 51.1748 130 50.7956Z" fill="white" fill-opacity="0.2"/>
</g>
<g filter="url(#filter5_i_23_78)">
<path d="M85.2934 4.53985L79.0929 1.10395C78.8199 0.952177 78.5125 0.866581 78.1973 0.854581C77.882 0.842581 77.5685 0.904539 77.2838 1.03509C76.9992 1.16563 76.752 1.36083 76.5636 1.60377C76.3753 1.84671 76.2516 2.13005 76.2031 2.42926L68.5299 49.7861C68.4698 50.1575 68.5281 50.5377 68.6973 50.8767C68.8664 51.2157 69.1385 51.4977 69.4778 51.6854L75.89 55.2387C76.2324 55.4285 76.6271 55.5134 77.0212 55.482C77.4153 55.4506 77.79 55.3043 78.0951 55.0628L116.485 24.7271C116.726 24.5362 116.916 24.2921 117.038 24.0157C117.159 23.7392 117.21 23.4386 117.184 23.1395C117.159 22.8403 117.059 22.5515 116.892 22.2976C116.725 22.0437 116.497 21.8322 116.227 21.6811L109.995 18.2276C109.652 18.0382 109.258 17.9536 108.864 17.9852C108.47 18.0168 108.096 18.163 107.791 18.4043L89.0737 33.1917C88.7686 33.4332 88.394 33.5794 87.9999 33.6109C87.6058 33.6423 87.2111 33.5574 86.8686 33.3675L83.1988 31.3339C82.8562 31.1442 82.5823 30.8586 82.4136 30.5153C82.2449 30.172 82.1895 29.7875 82.2549 29.4131L86.2373 6.46063C86.3026 6.08661 86.2474 5.70236 86.079 5.35929C85.9106 5.01621 85.6354 4.72971 85.2934 4.53985Z" fill="white" fill-opacity="0.2"/>
</g>
<defs>
<filter id="filter0_i_23_78" x="0" y="41.4018" width="50.4479" height="45.8746" filterUnits="userSpaceOnUse" color-interpolation-filters="sRGB">
<feFlood flood-opacity="0" result="BackgroundImageFix"/>
<feBlend mode="normal" in="SourceGraphic" in2="BackgroundImageFix" result="shape"/>
<feColorMatrix in="SourceAlpha" type="matrix" values="0 0 0 0 0 0 0 0 0 0 0 0 0 0 0 0 0 0 127 0" result="hardAlpha"/>
<feOffset dy="-1"/>
<feGaussianBlur stdDeviation="1"/>
<feComposite in2="hardAlpha" operator="arithmetic" k2="-1" k3="1"/>
<feColorMatrix type="matrix" values="0 0 0 0 0 0 0 0 0 0 0 0 0 0 0 0 0 0 0.2 0"/>
<feBlend mode="normal" in2="shape" result="effect1_innerShadow_23_78"/>
</filter>
<filter id="filter1_i_23_78" x="13.12" y="73.9624" width="49.188" height="55.3559" filterUnits="userSpaceOnUse" color-interpolation-filters="sRGB">
<feFlood flood-opacity="0" result="BackgroundImageFix"/>
<feBlend mode="normal" in="SourceGraphic" in2="BackgroundImageFix" result="shape"/>
<feColorMatrix in="SourceAlpha" type="matrix" values="0 0 0 0 0 0 0 0 0 0 0 0 0 0 0 0 0 0 127 0" result="hardAlpha"/>
<feOffset dy="-1"/>
<feGaussianBlur stdDeviation="1"/>
<feComposite in2="hardAlpha" operator="arithmetic" k2="-1" k3="1"/>
<feColorMatrix type="matrix" values="0 0 0 0 0 0 0 0 0 0 0 0 0 0 0 0 0 0 0.2 0"/>
<feBlend mode="normal" in2="shape" result="effect1_innerShadow_23_78"/>
</filter>
<filter id="filter2_i_23_78" x="68.5068" y="73.5116" width="48.684" height="55.6353" filterUnits="userSpaceOnUse" color-interpolation-filters="sRGB">
<feFlood flood-opacity="0" result="BackgroundImageFix"/>
<feBlend mode="normal" in="SourceGraphic" in2="BackgroundImageFix" result="shape"/>
<feColorMatrix in="SourceAlpha" type="matrix" values="0 0 0 0 0 0 0 0 0 0 0 0 0 0 0 0 0 0 127 0" result="hardAlpha"/>
<feOffset dy="-1"/>
<feGaussianBlur stdDeviation="1"/>
<feComposite in2="hardAlpha" operator="arithmetic" k2="-1" k3="1"/>
<feColorMatrix type="matrix" values="0 0 0 0 0 0 0 0 0 0 0 0 0 0 0 0 0 0 0.2 0"/>
<feBlend mode="normal" in2="shape" result="effect1_innerShadow_23_78"/>
</filter>
<filter id="filter3_i_23_78" x="13.12" y="-0.318369" width="49.188" height="55.3559" filterUnits="userSpaceOnUse" color-interpolation-filters="sRGB">
<feFlood flood-opacity="0" result="BackgroundImageFix"/>
<feBlend mode="normal" in="SourceGraphic" in2="BackgroundImageFix" result="shape"/>
<feColorMatrix in="SourceAlpha" type="matrix" values="0 0 0 0 0 0 0 0 0 0 0 0 0 0 0 0 0 0 127 0" result="hardAlpha"/>
<feOffset dy="-1"/>
<feGaussianBlur stdDeviation="1"/>
<feComposite in2="hardAlpha" operator="arithmetic" k2="-1" k3="1"/>
<feColorMatrix type="matrix" values="0 0 0 0 0 0 0 0 0 0 0 0 0 0 0 0 0 0 0.2 0"/>
<feBlend mode="normal" in2="shape" result="effect1_innerShadow_23_78"/>
</filter>
<filter id="filter4_i_23_78" x="79.5521" y="41.0588" width="50.4479" height="45.8746" filterUnits="userSpaceOnUse" color-interpolation-filters="sRGB">
<feFlood flood-opacity="0" result="BackgroundImageFix"/>
<feBlend mode="normal" in="SourceGraphic" in2="BackgroundImageFix" result="shape"/>
<feColorMatrix in="SourceAlpha" type="matrix" values="0 0 0 0 0 0 0 0 0 0 0 0 0 0 0 0 0 0 127 0" result="hardAlpha"/>
<feOffset dy="-1"/>
<feGaussianBlur stdDeviation="1"/>
<feComposite in2="hardAlpha" operator="arithmetic" k2="-1" k3="1"/>
<feColorMatrix type="matrix" values="0 0 0 0 0 0 0 0 0 0 0 0 0 0 0 0 0 0 0.2 0"/>
<feBlend mode="normal" in2="shape" result="effect1_innerShadow_23_78"/>
</filter>
<filter id="filter5_i_23_78" x="68.5068" y="-0.146883" width="48.684" height="55.6353" filterUnits="userSpaceOnUse" color-interpolation-filters="sRGB">
<feFlood flood-opacity="0" result="BackgroundImageFix"/>
<feBlend mode="normal" in="SourceGraphic" in2="BackgroundImageFix" result="shape"/>
<feColorMatrix in="SourceAlpha" type="matrix" values="0 0 0 0 0 0 0 0 0 0 0 0 0 0 0 0 0 0 127 0" result="hardAlpha"/>
<feOffset dy="-1"/>
<feGaussianBlur stdDeviation="1"/>
<feComposite in2="hardAlpha" operator="arithmetic" k2="-1" k3="1"/>
<feColorMatrix type="matrix" values="0 0 0 0 0 0 0 0 0 0 0 0 0 0 0 0 0 0 0.2 0"/>
<feBlend mode="normal" in2="shape" result="effect1_innerShadow_23_78"/>
</filter>
</defs>
</svg>
